{"title":"The Invention Of Lying (2009) Ex-Sub DVDRip-By-NLU","uid":5699753,"size":775767359,"categoryP":"video","categoryS":"movies","magnet":"?xt=urn:btih:9f09cd550fe5d18d39f08e45526814eebf1f047f&amp;dn=The+Invention+Of+Lying+%282009%29+Ex-Sub+DVDRip-By-NLU&amp;tr=udp%3A%2F%2Ftracker.openbittorrent.com%3A80&amp;tr=udp%3A%2F%2Fopen.demonii.com%3A1337&amp;tr=udp%3A%2F%2Ftracker.coppersurfer.tk%3A6969&amp;tr=udp%3A%2F%2Fexodus.desync.com%3A6969","seeders":0,"leechers":1,"uploader":null,"files":8,"time":1279411243,"description":"The Invention Of Lying (2009) Ex-Sub DVDRip-By-NLU\n\n\nMM:   &lt;a href=&quot; http://moviemeter.nl/film/52202/&quot; rel=&quot;nofollow&quot; target=&quot;_NEW&quot;&gt; http://moviemeter.nl/film/52202/&lt;/a&gt;\n\nIMDB:   &lt;a href=&quot; http://www.imdb.com/title/tt1058017/&quot; rel=&quot;nofollow&quot; target=&quot;_NEW&quot;&gt; http://www.imdb.com/title/tt1058017/&lt;/a&gt;\n\nSubtiteling: Dutch / English / Italiano / Spanish / Portuguese / Hebrew / Romanian \n\nSource: Retail-Rental dvd5\n\nRelease  name                    : The Invention Of Lying (2009) Ex-Sub DVDRip-By-NLU\nFormat                           : DivX\nFormat/Info                      : Hack of AVI\nFile size                        : 700 MiB\nDuration                         : 1h 35mn\nOverall bit rate                 : 1 023 Kbps\n\nVideo\nID                               : 0\nFormat                           : MPEG-4 Visual\nFormat profile                   : AdvancedSimple@L5\nFormat settings, BVOP            : Yes\nFormat settings, QPel            : No\nFormat settings, GMC             : No warppoints\nFormat settings, Matrix          : Custom\nMuxing mode                      : Packed bitstream\nCodec ID                         : DX50\nCodec ID/Hint                    : DivX 5\nDuration                         : 1h 35mn\nBit rate                         : 885 Kbps\nWidth                            : 640 pixels\nHeight                           : 352 pixels\nDisplay aspect ratio             : 16:9\nFrame rate                       : 25.000 fps\nResolution                       : 24 bits\nColorimetry                      : 4:2:0\nScan type                        : Progressive\nBits/(Pixel*Frame)               : 0.157\nStream size                      : 605 MiB (87%)\nTitle                            : Video \nWriting library                  : XviD 1.2.1 (UTC 2008-12-04)\n\nAudio\nID                               : 1\nFormat                           : MPEG Audio\nFormat version                   : Version 1\nFormat profile                   : Layer 3\nFormat_Settings_Mode             : Joint stereo / MS Stereo\nCodec ID                         : 55\nCodec ID/Hint                    : MP3\nDuration                         : 1h 35mn\nBit rate mode                    : Constant\nBit rate                         : 128 Kbps\nChannel(s)                       : 2 channels\nSampling rate                    : 48.0 KHz\nResolution                       : 16 bits\nStream size                      : 87.6 MiB (13%)\nAlignment                        : Split accross interleaves\nInterleave, duration             : 40 ms (1.00 video frame)\nInterleave, preload duration     : 500 ms\nTitle                            : Audio \nWriting library                  : LAME3.98r\nEncoding settings                : -m j -V 4 -q 7 -lowpass 17 -b 128\n\n","torrent":{"xt":"urn:btih:9f09cd550fe5d18d39f08e45526814eebf1f047f","amp;dn":"The+Invention+Of+Lying+%282009%29+Ex-Sub+DVDRip-By-NLU","amp;tr":["udp%3A%2F%2Ftracker.openbittorrent.com%3A80","udp%3A%2F%2Fopen.demonii.com%3A1337","udp%3A%2F%2Ftracker.coppersurfer.tk%3A6969","udp%3A%2F%2Fexodus.desync.com%3A6969"],"infoHash":"9f09cd550fe5d18d39f08e45526814eebf1f047f","infoHashBuffer":{"type":"Buffer","data":[159,9,205,85,15,229,209,141,57,240,142,69,82,104,20,238,191,31,4,127]},"announce":[],"urlList":[]}}